<svg viewBox="0 0 200 390" xmlns="http://www.w3.org/2000/svg" style="font-family:monospace">
<rect width="200" height="390" fill="#FFFFFF"/>
<rect x="0" y="0" width="200" height="30" fill="#F4F4F4" stroke="#D2D2D2" stroke-width="1"/>
<rect x="8" y="9" width="11" height="2" fill="#BDBDBD" rx="1"/>
<rect x="8" y="14" width="11" height="2" fill="#BDBDBD" rx="1"/>
<rect x="8" y="19" width="11" height="2" fill="#BDBDBD" rx="1"/>
<rect x="78" y="10" width="44" height="10" fill="#D2D2D2" rx="3"/>
<rect x="178" y="8" width="14" height="14" fill="#E8E8E8" stroke="#D2D2D2" stroke-width="1" rx="2"/>
<rect x="2" y="29" width="20" height="10" fill="#F4F4F4" stroke="#D2D2D2" stroke-width="1" rx="2"/>
<text x="6" y="37.5" font-family="monospace" font-size="5.5" fill="#888" text-anchor="start" font-weight="normal">NAV</text>
<rect x="0" y="30" width="200" height="96" fill="#E8E8E8" stroke="#D2D2D2" stroke-width="1"/>
<line x1="0" y1="30" x2="200" y2="126" stroke="#D2D2D2" stroke-width="1"/>
<line x1="200" y1="30" x2="0" y2="126" stroke="#D2D2D2" stroke-width="1"/>
<rect x="8" y="66" width="74" height="10" fill="rgba(255,255,255,0.55)" rx="2"/>
<rect x="8" y="82" width="44" height="18" fill="#C93A2A" rx="3" opacity="0.6"/>
<rect x="2" y="127" width="24" height="10" fill="#F4F4F4" stroke="#D2D2D2" stroke-width="1" rx="2"/>
<text x="6" y="135.5" font-family="monospace" font-size="5.5" fill="#888" text-anchor="start" font-weight="normal">HERO</text>
<rect x="0" y="128" width="200" height="54" fill="#F4F4F4" stroke="#D2D2D2" stroke-width="1"/>
<circle cx="20" cy="145" r="14" fill="#E8E8E8" stroke="#D2D2D2" stroke-width="1"/>
<rect x="4" y="160" width="32" height="4" fill="#BDBDBD" rx="2"/>
<circle cx="68" cy="145" r="14" fill="#E8E8E8" stroke="#D2D2D2" stroke-width="1"/>
<rect x="52" y="160" width="32" height="4" fill="#BDBDBD" rx="2"/>
<circle cx="116" cy="145" r="14" fill="#E8E8E8" stroke="#D2D2D2" stroke-width="1"/>
<rect x="100" y="160" width="32" height="4" fill="#BDBDBD" rx="2"/>
<circle cx="164" cy="145" r="14" fill="#E8E8E8" stroke="#D2D2D2" stroke-width="1"/>
<rect x="148" y="160" width="32" height="4" fill="#BDBDBD" rx="2"/>
<rect x="2" y="182" width="48" height="10" fill="#F4F4F4" stroke="#D2D2D2" stroke-width="1" rx="2"/>
<text x="6" y="190.5" font-family="monospace" font-size="5.5" fill="#888" text-anchor="start" font-weight="normal">CATEGORIES</text>
<rect x="8" y="190" width="60" height="5" fill="#D2D2D2" rx="2"/>
<rect x="8" y="204" width="88" height="56" fill="#E8E8E8" stroke="#D2D2D2" stroke-width="1"/>
<line x1="8" y1="204" x2="96" y2="260" stroke="#D2D2D2" stroke-width="1"/>
<line x1="96" y1="204" x2="8" y2="260" stroke="#D2D2D2" stroke-width="1"/>
<rect x="8" y="266" width="82" height="3" fill="#BDBDBD" rx="2"/>
<rect x="8" y="274" width="70" height="3" fill="#BDBDBD" rx="2"/>
<rect x="8" y="282" width="22" height="3" fill="#BDBDBD" rx="2"/>
<rect x="104" y="204" width="88" height="56" fill="#E8E8E8" stroke="#D2D2D2" stroke-width="1"/>
<line x1="104" y1="204" x2="192" y2="260" stroke="#D2D2D2" stroke-width="1"/>
<line x1="192" y1="204" x2="104" y2="260" stroke="#D2D2D2" stroke-width="1"/>
<rect x="104" y="266" width="82" height="3" fill="#BDBDBD" rx="2"/>
<rect x="104" y="274" width="70" height="3" fill="#BDBDBD" rx="2"/>
<rect x="104" y="282" width="22" height="3" fill="#BDBDBD" rx="2"/>
<rect x="8" y="290" width="88" height="56" fill="#E8E8E8" stroke="#D2D2D2" stroke-width="1"/>
<line x1="8" y1="290" x2="96" y2="346" stroke="#D2D2D2" stroke-width="1"/>
<line x1="96" y1="290" x2="8" y2="346" stroke="#D2D2D2" stroke-width="1"/>
<rect x="8" y="352" width="82" height="3" fill="#BDBDBD" rx="2"/>
<rect x="8" y="360" width="70" height="3" fill="#BDBDBD" rx="2"/>
<rect x="8" y="368" width="22" height="3" fill="#BDBDBD" rx="2"/>
<rect x="104" y="290" width="88" height="56" fill="#E8E8E8" stroke="#D2D2D2" stroke-width="1"/>
<line x1="104" y1="290" x2="192" y2="346" stroke="#D2D2D2" stroke-width="1"/>
<line x1="192" y1="290" x2="104" y2="346" stroke="#D2D2D2" stroke-width="1"/>
<rect x="104" y="352" width="82" height="3" fill="#BDBDBD" rx="2"/>
<rect x="104" y="360" width="70" height="3" fill="#BDBDBD" rx="2"/>
<rect x="104" y="368" width="22" height="3" fill="#BDBDBD" rx="2"/>
<rect x="2" y="199" width="56" height="10" fill="#F4F4F4" stroke="#D2D2D2" stroke-width="1" rx="2"/>
<text x="6" y="207.5" font-family="monospace" font-size="5.5" fill="#888" text-anchor="start" font-weight="normal">PRODUCT GRID</text>
</svg>
