<svg viewBox="0 0 200 390" xmlns="http://www.w3.org/2000/svg" style="font-family:monospace">
<rect width="200" height="390" fill="#FFFFFF"/>
<rect x="0" y="0" width="200" height="30" fill="#F4F4F4" stroke="#D2D2D2" stroke-width="1"/>
<rect x="8" y="9" width="11" height="2" fill="#BDBDBD" rx="1"/>
<rect x="8" y="14" width="11" height="2" fill="#BDBDBD" rx="1"/>
<rect x="8" y="19" width="11" height="2" fill="#BDBDBD" rx="1"/>
<rect x="78" y="10" width="44" height="10" fill="#D2D2D2" rx="3"/>
<rect x="178" y="8" width="14" height="14" fill="#E8E8E8" stroke="#D2D2D2" stroke-width="1" rx="2"/>
<rect x="0" y="30" width="200" height="130" fill="#E8E8E8" stroke="#D2D2D2" stroke-width="1"/>
<line x1="0" y1="30" x2="200" y2="160" stroke="#D2D2D2" stroke-width="1"/>
<line x1="200" y1="30" x2="0" y2="160" stroke="#D2D2D2" stroke-width="1"/>
<circle cx="84" cy="166" r="3" fill="#D2D2D2" stroke="#D2D2D2" stroke-width="1"/>
<circle cx="92" cy="166" r="3" fill="#D2D2D2" stroke="#D2D2D2" stroke-width="1"/>
<circle cx="100" cy="166" r="4" fill="#C93A2A" stroke="#D2D2D2" stroke-width="1"/>
<circle cx="108" cy="166" r="3" fill="#D2D2D2" stroke="#D2D2D2" stroke-width="1"/>
<circle cx="116" cy="166" r="3" fill="#D2D2D2" stroke="#D2D2D2" stroke-width="1"/>
<rect x="2" y="169" width="60" height="10" fill="#F4F4F4" stroke="#D2D2D2" stroke-width="1" rx="2"/>
<text x="6" y="177.5" font-family="monospace" font-size="5.5" fill="#888" text-anchor="start" font-weight="normal">PRODUCT IMAGE</text>
<rect x="10" y="178" width="178" height="6" fill="#BDBDBD" rx="2"/>
<rect x="10" y="190" width="162" height="6" fill="#BDBDBD" rx="2"/>
<text x="10" y="213" font-family="monospace" font-size="8" fill="#F4A020" text-anchor="start" font-weight="normal">★★★★☆</text>
<rect x="64" y="207" width="32" height="6" fill="#BDBDBD" rx="2"/>
<rect x="10" y="226" width="56" height="12" fill="#D2D2D2" rx="3"/>
<rect x="72" y="228" width="32" height="8" fill="#BDBDBD" rx="2" opacity="0.5"/>
<rect x="10" y="248" width="38" height="4" fill="#D2D2D2" rx="2"/>
<rect x="52" y="248" width="50" height="4" fill="#BDBDBD" rx="2"/>
<rect x="10" y="261" width="38" height="4" fill="#D2D2D2" rx="2"/>
<rect x="52" y="261" width="50" height="4" fill="#BDBDBD" rx="2"/>
<rect x="10" y="274" width="38" height="4" fill="#D2D2D2" rx="2"/>
<rect x="52" y="274" width="50" height="4" fill="#BDBDBD" rx="2"/>
<rect x="2" y="174" width="56" height="10" fill="#F4F4F4" stroke="#D2D2D2" stroke-width="1" rx="2"/>
<text x="6" y="182.5" font-family="monospace" font-size="5.5" fill="#888" text-anchor="start" font-weight="normal">PRODUCT INFO</text>
<rect x="0" y="291" width="200" height="24" fill="#F4F4F4" stroke="#D2D2D2" stroke-width="1"/>
<rect x="0" y="291" width="66" height="3" fill="#C93A2A"/>
<rect x="4" y="298" width="58" height="5" fill="#D2D2D2" rx="2"/>
<rect x="66" y="291" width="66" height="3" fill="none"/>
<rect x="70" y="298" width="58" height="5" fill="#BDBDBD" rx="2"/>
<rect x="132" y="291" width="66" height="3" fill="none"/>
<rect x="136" y="298" width="58" height="5" fill="#BDBDBD" rx="2"/>
<rect x="0" y="352" width="200" height="38" fill="#F5F5F5" stroke="#D2D2D2" stroke-width="1"/>
<rect x="6" y="360" width="90" height="22" fill="#FFFFFF" stroke="#C93A2A" stroke-width="1" rx="4"/>
<rect x="104" y="360" width="90" height="22" fill="#C93A2A" rx="4" opacity="0.7"/>
<rect x="2" y="349" width="52" height="10" fill="#F4F4F4" stroke="#D2D2D2" stroke-width="1" rx="2"/>
<text x="6" y="357.5" font-family="monospace" font-size="5.5" fill="#888" text-anchor="start" font-weight="normal">ADD TO CART</text>
</svg>
