<svg viewBox="0 0 420 590" xmlns="http://www.w3.org/2000/svg" style="font-family:monospace">
<rect width="420" height="590" fill="#FFFFFF"/>
<rect x="0" y="0" width="420" height="36" fill="#F4F4F4" stroke="#D2D2D2" stroke-width="1"/>
<rect x="10" y="11" width="54" height="14" fill="#D2D2D2" rx="3"/>
<circle cx="382" cy="18" r="7" fill="none" stroke="#BDBDBD" stroke-width="1"/>
<line x1="387" y1="23" x2="390" y2="26" stroke="#BDBDBD" stroke-width="1.5"/>
<rect x="396" y="10" width="14" height="16" fill="#E8E8E8" stroke="#D2D2D2" stroke-width="1" rx="2"/>

<!-- Step indicator -->
<rect x="4" y="41" width="52" height="10" fill="#F4F4F4" stroke="#D2D2D2" stroke-width="1" rx="2"/>
<text x="8" y="49.5" font-size="5.5" fill="#888">STEPS</text>
<rect x="60" y="42" width="60" height="8" fill="#C93A2A" opacity="0.55" rx="3"/>
<text x="66" y="48" font-size="5.5" fill="#fff">1. Cart</text>
<line x1="124" y1="46" x2="150" y2="46" stroke="#D2D2D2" stroke-width="1"/>
<rect x="154" y="42" width="72" height="8" fill="#E8E8E8" stroke="#D2D2D2" stroke-width="1" rx="3"/>
<text x="160" y="48" font-size="5.5" fill="#999">2. Address</text>
<line x1="230" y1="46" x2="256" y2="46" stroke="#D2D2D2" stroke-width="1"/>
<rect x="260" y="42" width="70" height="8" fill="#E8E8E8" stroke="#D2D2D2" stroke-width="1" rx="3"/>
<text x="266" y="48" font-size="5.5" fill="#999">3. Payment</text>

<!-- Cart title -->
<rect x="14" y="62" width="72" height="8" fill="#D2D2D2" rx="2"/>
<rect x="330" y="62" width="76" height="6" fill="#BDBDBD" rx="2"/>

<!-- Cart item 1 -->
<rect x="4" y="80" width="52" height="10" fill="#F4F4F4" stroke="#D2D2D2" stroke-width="1" rx="2"/>
<text x="8" y="88.5" font-size="5.5" fill="#888">CART ITEM</text>
<rect x="0" y="82" width="420" height="76" fill="#FFFFFF" stroke="#D2D2D2" stroke-width="1"/>
<rect x="16" y="94" width="52" height="52" fill="#E8E8E8" stroke="#D2D2D2" stroke-width="1"/>
<rect x="80" y="98" width="150" height="7" fill="#D2D2D2" rx="2"/>
<rect x="80" y="110" width="110" height="5" fill="#BDBDBD" rx="2"/>
<rect x="80" y="122" width="60" height="14" fill="#E8E8E8" stroke="#D2D2D2" stroke-width="1" rx="3"/>
<rect x="80" y="140" width="70" height="7" fill="#D2D2D2" rx="2"/>
<rect x="380" y="94" width="14" height="14" fill="none" stroke="#D2D2D2" stroke-width="1"/>

<!-- Cart item 2 -->
<rect x="0" y="160" width="420" height="76" fill="#FFFFFF" stroke="#D2D2D2" stroke-width="1"/>
<rect x="16" y="172" width="52" height="52" fill="#E8E8E8" stroke="#D2D2D2" stroke-width="1"/>
<rect x="80" y="176" width="150" height="7" fill="#D2D2D2" rx="2"/>
<rect x="80" y="188" width="110" height="5" fill="#BDBDBD" rx="2"/>
<rect x="80" y="200" width="60" height="14" fill="#E8E8E8" stroke="#D2D2D2" stroke-width="1" rx="3"/>
<rect x="80" y="218" width="70" height="7" fill="#D2D2D2" rx="2"/>
<rect x="80" y="228" width="120" height="6" fill="#F6D9D9" rx="2"/>
<rect x="380" y="172" width="14" height="14" fill="none" stroke="#D2D2D2" stroke-width="1"/>

<!-- Order summary card -->
<rect x="4" y="242" width="66" height="10" fill="#F4F4F4" stroke="#D2D2D2" stroke-width="1" rx="2"/>
<text x="8" y="250.5" font-size="5.5" fill="#888">PRICE DETAILS</text>
<rect x="0" y="244" width="420" height="140" fill="#F9F9F9" stroke="#D2D2D2" stroke-width="1"/>
<rect x="18" y="258" width="80" height="6" fill="#BDBDBD" rx="2"/>
<rect x="380" y="258" width="24" height="6" fill="#BDBDBD" rx="2"/>
<rect x="18" y="272" width="90" height="6" fill="#BDBDBD" rx="2"/>
<rect x="380" y="272" width="24" height="6" fill="#BDBDBD" rx="2"/>
<rect x="18" y="286" width="70" height="6" fill="#BDBDBD" rx="2"/>
<rect x="380" y="286" width="24" height="6" fill="#BDBDBD" rx="2"/>
<line x1="18" y1="300" x2="402" y2="300" stroke="#D2D2D2" stroke-width="1"/>
<rect x="18" y="308" width="60" height="8" fill="#D2D2D2" rx="2"/>
<rect x="370" y="308" width="34" height="8" fill="#D2D2D2" rx="2"/>
<rect x="18" y="330" width="384" height="26" fill="#C93A2A" opacity="0.6" rx="4"/>
<text x="210" y="346" font-size="7" fill="#fff" text-anchor="middle">PROCEED</text>

<!-- Trust badges -->
<rect x="4" y="392" width="66" height="10" fill="#F4F4F4" stroke="#D2D2D2" stroke-width="1" rx="2"/>
<text x="8" y="400.5" font-size="5.5" fill="#888">TRUST BADGES</text>
<rect x="0" y="394" width="420" height="60" fill="#EDEDED" stroke="#D2D2D2" stroke-width="1"/>
<circle cx="60" cy="420" r="13" fill="#E8E8E8" stroke="#D2D2D2" stroke-width="1"/>
<circle cx="165" cy="420" r="13" fill="#E8E8E8" stroke="#D2D2D2" stroke-width="1"/>
<circle cx="270" cy="420" r="13" fill="#E8E8E8" stroke="#D2D2D2" stroke-width="1"/>
<circle cx="360" cy="420" r="13" fill="#E8E8E8" stroke="#D2D2D2" stroke-width="1"/>
<rect x="30" y="440" width="60" height="4" fill="#BDBDBD" rx="2"/>
<rect x="135" y="440" width="60" height="4" fill="#BDBDBD" rx="2"/>
<rect x="240" y="440" width="60" height="4" fill="#BDBDBD" rx="2"/>
<rect x="335" y="440" width="50" height="4" fill="#BDBDBD" rx="2"/>

<!-- Footer -->
<rect x="4" y="456" width="32" height="10" fill="#F4F4F4" stroke="#D2D2D2" stroke-width="1" rx="2"/>
<text x="8" y="464.5" font-size="5.5" fill="#888">FOOTER</text>
<rect x="0" y="458" width="420" height="132" fill="#1B1B1B"/>
<rect x="20" y="472" width="40" height="5" fill="#666" rx="2"/>
<rect x="20" y="484" width="34" height="4" fill="#444" rx="2"/>
<rect x="20" y="494" width="34" height="4" fill="#444" rx="2"/>
<rect x="20" y="504" width="34" height="4" fill="#444" rx="2"/>
<rect x="110" y="472" width="40" height="5" fill="#666" rx="2"/>
<rect x="110" y="484" width="34" height="4" fill="#444" rx="2"/>
<rect x="110" y="494" width="34" height="4" fill="#444" rx="2"/>
<rect x="200" y="472" width="40" height="5" fill="#666" rx="2"/>
<rect x="200" y="484" width="34" height="4" fill="#444" rx="2"/>
<rect x="200" y="494" width="34" height="4" fill="#444" rx="2"/>
<rect x="290" y="472" width="40" height="5" fill="#666" rx="2"/>
<rect x="290" y="484" width="34" height="4" fill="#444" rx="2"/>
<rect x="20" y="530" width="150" height="10" fill="none" stroke="#555" stroke-width="1" rx="2"/>
<rect x="176" y="530" width="46" height="10" fill="#C93A2A" opacity="0.6" rx="2"/>
<line x1="20" y1="560" x2="400" y2="560" stroke="#333" stroke-width="1"/>
<rect x="20" y="570" width="120" height="4" fill="#444" rx="2"/>
</svg>
